<svg width="20" height="20" viewBox="0 0 20 20" fill="none" xmlns="http://www.w3.org/2000/svg">
<g id="dollar 1" clip-path="url(#clip0_2_50)">
<g id="Currency">
<g id="DoubleDollar">
<g id="Coin">
<g id="Bottom">
<path id="Vector" d="M10 20C15.2855 20 19.5703 15.5228 19.5703 10C19.5703 4.47715 15.2855 0 10 0C4.71446 0 0.429688 4.47715 0.429688 10C0.429688 15.5228 4.71446 20 10 20Z" fill="#E88102"/>
<path id="Vector_2" d="M10 18.9453C15.2316 18.9453 19.4727 14.7043 19.4727 9.47266C19.4727 4.24105 15.2316 0 10 0C4.7684 0 0.527344 4.24105 0.527344 9.47266C0.527344 14.7043 4.7684 18.9453 10 18.9453Z" fill="#FDD835"/>
</g>
<g id="Shade">
<path id="Vector_3" opacity="0.5" d="M13.7812 0.785156L1.3125 13.25C0.894531 12.293 0.632812 11.2539 0.554688 10.1641L10.6914 0.0234375C11.7812 0.105469 12.8203 0.367188 13.7812 0.785156Z" fill="white"/>
<path id="Vector_4" opacity="0.5" d="M18.2539 4.82422L5.35156 17.7266C4.54688 17.2734 3.82031 16.707 3.18359 16.0469L16.5781 2.65625C17.2344 3.28906 17.8008 4.01953 18.2539 4.82422Z" fill="white"/>
<path id="Vector_5" opacity="0.5" d="M16.1914 2.30078L2.83203 15.6602C2.625 15.418 2.42578 15.1641 2.24219 14.9023L15.4336 1.71094C15.6953 1.89453 15.9492 2.09375 16.1914 2.30078Z" fill="white"/>
<path id="Vector_6" opacity="0.5" d="M19.1758 7.10938L7.63672 18.6484C7.28906 18.5586 6.94922 18.4492 6.61719 18.3242L18.8516 6.08984C18.9766 6.42188 19.0859 6.76172 19.1758 7.10938Z" fill="white"/>
<path id="Vector_7" opacity="0.5" d="M19.4727 9.47266C19.4727 9.53906 19.4727 9.60156 19.4688 9.66797C19.3672 4.52734 15.168 0.390625 10 0.390625C4.83203 0.390625 0.632813 4.52734 0.53125 9.66797C0.53125 9.60156 0.527344 9.53906 0.527344 9.47266C0.527344 4.24219 4.76953 0 10 0C15.2305 0 19.4727 4.24219 19.4727 9.47266Z" fill="white"/>
<path id="Vector_8" opacity="0.5" d="M17.6953 9.88281C17.6953 13.9805 14.3711 17.3047 10.2734 17.3047C7.97266 17.3047 5.91406 16.2539 4.55078 14.6094C5.90625 16.0742 7.84375 16.9922 10 16.9922C14.0977 16.9922 17.4219 13.668 17.4219 9.57031C17.4219 7.77344 16.7852 6.12891 15.7227 4.84375C16.9453 6.16797 17.6953 7.9375 17.6953 9.88281Z" fill="white"/>
</g>
<g id="Top">
<path id="Vector_9" d="M10 16.9922C14.099 16.9922 17.4219 13.6693 17.4219 9.57031C17.4219 5.47132 14.099 2.14844 10 2.14844C5.90101 2.14844 2.57812 5.47132 2.57812 9.57031C2.57812 13.6693 5.90101 16.9922 10 16.9922Z" fill="#F39E09"/>
<path id="Vector_10" d="M15.625 4.72656C14.3242 3.60547 12.6328 2.92969 10.7812 2.92969C6.68359 2.92969 3.35938 6.25391 3.35938 10.3516C3.35938 12.2031 4.03516 13.8945 5.15625 15.1953C3.57812 13.832 2.57812 11.8203 2.57812 9.57031C2.57812 5.47266 5.90234 2.14844 10 2.14844C12.2461 2.14844 14.2617 3.14844 15.625 4.72656Z" fill="#E88102"/>
</g>
</g>
<g id="Icon">
<path id="Bottom-2" d="M10.9687 7.67187C11.1758 7.85937 11.2812 8.12109 11.2812 8.46094H13.2852V7.875C13.2852 7.875 13.043 7.33203 12.8906 7.10938C12.6289 6.71484 12.2578 6.41016 11.7852 6.19531C11.5234 6.07813 11.2461 5.99219 10.9453 5.94141V4.88281H10.2422V5.87891C10.2188 5.87891 10.0273 5.87891 9.95703 5.88281V4.88281H9.25391V5.95703C8.99219 6.00391 8.74609 6.07812 8.51562 6.16797C8.02344 6.36328 7.64453 6.64062 7.375 6.99219C7.20703 7.21094 6.97266 7.62891 6.97266 7.62891V8.21484C6.97266 9.14062 7.51172 9.87109 8.59375 10.4023C8.78516 10.4961 9.00781 10.5938 9.25781 10.6914V12.7344C9.19141 12.6992 9.13281 12.6562 9.08203 12.6094C8.85156 12.3984 8.73438 12.0703 8.73438 11.6211L6.71875 11.0352V11.6211C6.71875 12.1719 6.85547 12.6562 7.13281 13.0781C7.41016 13.5 7.82031 13.832 8.36719 14.0742C8.64453 14.1992 8.94141 14.2891 9.25391 14.3477V15.4297H9.95703V14.4297C10.0391 14.4336 10.1211 14.4336 10.2031 14.4336H10.2422V15.4297H10.9453V14.3906C11.5586 14.3086 12.0625 14.1172 12.4609 13.8164C13.0117 13.4023 13.2852 12.8281 13.2852 12.0977V11.5117C13.2852 11.5117 12.6641 10.375 11.9336 9.95312C11.6602 9.79688 11.3281 9.64453 10.9414 9.50391V7.65625C10.9531 7.66016 10.9609 7.66406 10.9687 7.67187ZM9.25 8.76953C9.05859 8.60938 8.96094 8.42969 8.96094 8.23438C8.96094 8 9.05469 7.80469 9.25 7.65234V8.76953ZM10.2422 12.9258C10.2266 12.9258 10.2148 12.9258 10.2031 12.9258C10.1172 12.9258 10.0352 12.9219 9.95703 12.918V10.9414C10.0586 10.9766 10.1523 11.0117 10.2422 11.0469V12.9258ZM10.2422 9.26172C10.1406 9.22656 10.0469 9.19141 9.95703 9.15234V7.39844C10.0117 7.39453 10.0703 7.39062 10.1289 7.39062C10.168 7.39062 10.207 7.39062 10.2422 7.39453V9.26172ZM10.9648 11.4219C11.1719 11.5859 11.2773 11.8164 11.2773 12.1094C11.2773 12.3672 11.1797 12.5703 10.9883 12.7148C10.9727 12.7266 10.9609 12.7344 10.9453 12.7422V11.4062C10.9492 11.4102 10.957 11.4141 10.9648 11.4219Z" fill="#DB6704"/>
<path id="Top-2" d="M11.9336 9.36328C11.6602 9.20703 11.3281 9.05469 10.9414 8.91406V7.06641C10.9492 7.07422 10.9609 7.08203 10.9687 7.08594C11.1758 7.27344 11.2812 7.53516 11.2812 7.875H13.2852C13.2852 7.36719 13.1523 6.91797 12.8906 6.52344C12.6289 6.12891 12.2578 5.82422 11.7852 5.60938C11.5234 5.49219 11.2461 5.40625 10.9453 5.35547V4.29688H10.2422V5.29297C10.2188 5.29297 10.1953 5.29297 10.1719 5.29297C10.0977 5.29297 10.0273 5.29297 9.95703 5.29688V4.29688H9.25391V5.37109C8.99219 5.41797 8.74609 5.49219 8.51562 5.58203C8.02344 5.77734 7.64453 6.05469 7.375 6.40625C7.10547 6.75781 6.97266 7.16797 6.97266 7.62891C6.97266 8.55469 7.51172 9.28516 8.59375 9.81641C8.78516 9.91016 9.00781 10.0078 9.25781 10.1055V12.1484C9.19141 12.1133 9.13281 12.0703 9.08203 12.0234C8.85156 11.8125 8.73438 11.4844 8.73438 11.0352H6.71875C6.71875 11.5859 6.85547 12.0703 7.13281 12.4922C7.41016 12.9141 7.82031 13.2461 8.36719 13.4883C8.64453 13.6133 8.94141 13.7031 9.25391 13.7617V14.8438H9.95703V13.8438C10.0391 13.8477 10.1211 13.8477 10.2031 13.8477H10.2422V14.8438H10.9453V13.8047C11.5586 13.7227 12.0625 13.5312 12.4609 13.2305C13.0117 12.8164 13.2852 12.2422 13.2852 11.5117C13.2852 10.5977 12.8359 9.88281 11.9336 9.36328ZM10.125 6.80469C10.1641 6.80469 10.2031 6.80469 10.2383 6.80859V8.67188C10.1367 8.63672 10.0391 8.60156 9.95312 8.5625V6.80859C10.0078 6.80859 10.0664 6.80859 10.125 6.80469ZM8.96484 7.64844C8.96484 7.41406 9.05859 7.21875 9.25391 7.06641V8.1875C9.05859 8.02344 8.96484 7.84375 8.96484 7.64844ZM10.1992 12.3398C10.1133 12.3398 10.0312 12.3359 9.95312 12.332V10.3555C10.0547 10.3906 10.1484 10.4258 10.2383 10.4609V12.3398C10.2266 12.3398 10.2148 12.3398 10.1992 12.3398ZM10.9883 12.125C10.9727 12.1367 10.9609 12.1445 10.9453 12.1523V10.8203C10.9531 10.8242 10.9609 10.832 10.9648 10.8359C11.1719 11 11.2773 11.2305 11.2773 11.5234C11.2773 11.7812 11.1797 11.9805 10.9883 12.125Z" fill="#FDD835"/>
<g id="Shade-2">
<path id="Vector_11" opacity="0.5" d="M8.51172 5.58594C8.72266 5.50391 8.94141 5.4375 9.17578 5.38672L6.96875 7.59375C6.97656 7.14844 7.10938 6.75 7.37109 6.40625C7.64063 6.05469 8.01953 5.78125 8.51172 5.58594Z" fill="white"/>
<path id="Vector_12" opacity="0.5" d="M9.25 4.29688H9.95312V4.60938L9.25 5.3125V4.29688Z" fill="white"/>
<path id="Vector_13" opacity="0.5" d="M10.2656 4.29688L10.2422 4.32422V4.29688H10.2656Z" fill="white"/>
<path id="Vector_14" opacity="0.5" d="M12.8828 10.1953C12.6602 9.87891 12.3437 9.60156 11.9336 9.36328C11.6602 9.20312 11.3281 9.05469 10.9414 8.91406V8.28906L9.16016 10.0703C9.1875 10.082 9.21875 10.0938 9.25 10.1055V12.1484C9.18359 12.1133 9.125 12.0703 9.07422 12.0234C8.84375 11.8125 8.72656 11.4844 8.72656 11.0352H8.19531L6.98438 12.2461C7.02734 12.332 7.07422 12.4141 7.125 12.4922C7.40234 12.9141 7.8125 13.2461 8.35937 13.4883C8.63672 13.6094 8.93359 13.7031 9.24609 13.7617V13.8242L10.9375 12.1328V10.8203C10.9453 10.8242 10.9531 10.832 10.957 10.8359C11.1641 11 11.2695 11.2305 11.2695 11.5234C11.2695 11.6602 11.2422 11.7813 11.1875 11.8828L12.8828 10.1953ZM10.2422 12.3398C10.2266 12.3398 10.2148 12.3398 10.2031 12.3398C10.1172 12.3398 10.0352 12.3359 9.95703 12.332V10.3555C10.0586 10.3906 10.1523 10.4258 10.2422 10.4609V12.3398Z" fill="white"/>
<path id="Vector_15" opacity="0.5" d="M13.2852 7.875H11.3555L12.8125 6.41797C12.8398 6.45312 12.8633 6.48828 12.8867 6.52344C13.1523 6.91797 13.2852 7.36719 13.2852 7.875Z" fill="white"/>
<path id="Vector_16" opacity="0.5" d="M6.71484 11.0352H7.45703L6.78906 11.6992C6.74219 11.4922 6.71484 11.2695 6.71484 11.0352Z" fill="white"/>
<path id="Vector_17" opacity="0.5" d="M9.95312 7.19141V8.53906L8.64453 9.84766C8.625 9.83984 8.60547 9.82812 8.58594 9.81641C8.28906 9.66797 8.03125 9.50781 7.8125 9.33203L9.10547 8.03906C9.14453 8.08984 9.19141 8.13672 9.25 8.18359V7.89453L9.95312 7.19141Z" fill="white"/>
<path id="Vector_18" opacity="0.5" d="M12.457 6.03516L11.1602 7.33203C11.1133 7.23828 11.0469 7.16016 10.9687 7.08984C10.9609 7.08203 10.9492 7.07422 10.9414 7.07031V7.55469L10.2383 8.25781V6.91016L11.6055 5.54297C11.6641 5.56641 11.7227 5.58984 11.7812 5.61719C12.0391 5.72656 12.2617 5.86719 12.457 6.03516Z" fill="white"/>
<path id="Vector_19" opacity="0.5" d="M10.2422 14.6953L10.9453 13.9922V14.8437H10.2422V14.6953Z" fill="white"/>
<path id="Vector_20" opacity="0.5" d="M13.2812 11.6562C13.2461 12.3164 12.9727 12.8398 12.4609 13.2266C12.1133 13.4883 11.6836 13.668 11.1719 13.7656L13.2812 11.6562Z" fill="white"/>
<path id="Vector_21" opacity="0.25" d="M16.1914 5.47266C11.3867 7.16016 7.52734 10.8672 5.63672 15.5742C5.47266 15.4531 5.3125 15.3281 5.15625 15.1914C4.03516 13.8906 3.35938 12.1992 3.35938 10.3516C3.35938 6.25391 6.68359 2.92969 10.7812 2.92969C12.6328 2.92969 14.3242 3.60547 15.6211 4.72656C15.8281 4.96484 16.0156 5.21484 16.1914 5.47266Z" fill="white"/>
</g>
</g>
</g>
</g>
</g>
<defs>
<clipPath id="clip0_2_50">
<rect width="20" height="20" fill="white"/>
</clipPath>
</defs>
</svg>
